<?xml version="1.0" encoding="UTF-8"?>
<svg width="991px" height="897px" viewBox="0 0 991 897" version="1.1" xmlns="http://www.w3.org/2000/svg" xmlns:xlink="http://www.w3.org/1999/xlink">
    <!-- Generator: Sketch 54.1 (76490) - https://sketchapp.com -->
    <title>graph copy 6</title>
    <desc>Created with Sketch.</desc>
    <g id="Page-1" stroke="none" stroke-width="1" fill="none" fill-rule="evenodd">
        <g id="graph-copy-6">
            <polygon id="Path-726-Copy-71" fill="#4A90E2" fill-rule="nonzero" points="530.41311 457.541702 522.146048 223 510.154122 223.458298 518.421184 458"></polygon>
            <polygon id="Path-726-Copy-72" fill="#4A90E2" fill-rule="nonzero" points="494.154122 40.1005981 510.125728 224 522.154122 222.899402 506.182516 39"></polygon>
            <polygon id="Path-726-Copy-73" fill="#4A90E2" fill-rule="nonzero" points="657.89702 127 513.154122 217.343577 519.411224 228 664.154122 137.656423"></polygon>
            <polygon id="Path-726-Copy-74" fill="#4A90E2" fill-rule="nonzero" points="658.154122 137.857434 785.198024 212 791.154122 201.142566 664.11022 127"></polygon>
            <polygon id="Path-726-Copy-75" fill="#4A90E2" fill-rule="nonzero" points="663.408416 139 818.154122 78.7509833 813.899828 67 659.154122 127.249017"></polygon>
            <polygon id="Path-726-Copy-76" fill="#FA781A" fill-rule="nonzero" points="529.153213 462 718.154122 349.805562 712.155031 339 523.154122 451.194438"></polygon>
            <polygon id="Path-726-Copy-77" fill="#FA781A" fill-rule="nonzero" points="787.89047 208 709.154122 340.481017 719.417774 347 798.154122 214.518983"></polygon>
            <polygon id="Path-726-Copy-78" fill="#FA781A" fill-rule="nonzero" points="861.154122 376.962003 717.160965 339 714.154122 351.037997 858.147278 389"></polygon>
            <polygon id="Path-726-Copy-79" fill="#4A90E2" fill-rule="nonzero" points="853.154122 385.467007 943.350099 575 954.154122 569.532993 863.958144 380"></polygon>
            <polygon id="Path-726-Copy-80" fill="#FA781A" fill-rule="nonzero" points="521.154122 228.720488 711.932721 349 718.154122 338.279512 527.375523 218"></polygon>
            <polygon id="Path-726-Copy-81" fill="#4A90E2" fill-rule="nonzero" points="526.154122 220.030619 355.369979 90 348.154122 99.9693806 518.938265 230"></polygon>
            <polygon id="Path-726-Copy-82" fill="#4A90E2" fill-rule="nonzero" points="304.408236 248 357.154122 96.2163473 345.900008 92 293.154122 243.783653"></polygon>
            <polygon id="Path-726-Copy-83" fill="#4A90E2" fill-rule="nonzero" points="303.154122 243.018373 202.389787 118 193.154122 125.981627 293.918456 251"></polygon>
            <polygon id="Path-726-Copy-84" fill="#4A90E2" fill-rule="nonzero" points="156.760038 281 301.154122 248.225709 298.548206 236 154.154122 268.774291"></polygon>
            <polygon id="Path-726-Copy-85" fill="#4A90E2" fill-rule="nonzero" points="151.154122 278.373536 246.284544 387 255.154122 378.626464 160.0237 270"></polygon>
            <polygon id="Path-726-Copy-86" fill="#4A90E2" fill-rule="nonzero" points="22.1541219 367.98763 251.047067 389 252.154122 377.01237 23.2611765 356"></polygon>
            <polygon id="Path-726-Copy-87" fill="#4A90E2" fill-rule="nonzero" points="105.852644 491 254.154122 387.37551 247.4556 377 99.1541219 480.62449"></polygon>
            <polygon id="Path-726-Copy-88" fill="#4A90E2" fill-rule="nonzero" points="524.154122 462.209461 781.898605 513 784.154122 500.790539 526.409639 450"></polygon>
            <polygon id="Path-726-Copy-89" fill="#4A90E2" fill-rule="nonzero" points="946.154122 567.389341 786.595179 502 782.154122 513.610659 941.713065 579"></polygon>
            <polygon id="Path-726-Copy-90" fill="#4A90E2" fill-rule="nonzero" points="520.154122 460.502428 641.414618 626 651.154122 618.497572 529.893626 453"></polygon>
            <polygon id="Path-726-Copy-91" fill="#4A90E2" fill-rule="nonzero" points="520.154122 460.502428 641.414618 626 651.154122 618.497572 529.893626 453"></polygon>
            <polygon id="Path-726-Copy-92" fill="#4A90E2" fill-rule="nonzero" points="776.154122 669.461884 647.779983 615 643.154122 626.538116 771.528261 681"></polygon>
            <polygon id="Path-726-Copy-93" fill="#4A90E2" fill-rule="nonzero" points="767.154122 677.262375 817.787168 822 829.154122 817.737625 778.521076 673"></polygon>
            <polygon id="Path-726-Copy-94" fill="#4A90E2" fill-rule="nonzero" points="775.290701 682 946.154122 578.737817 940.017543 568 769.154122 671.262183"></polygon>
            <polygon id="Path-726-Copy-95" fill="#4A90E2" fill-rule="nonzero" points="597.784945 813 651.154122 623.442154 639.523298 620 586.154122 809.557846"></polygon>
            <polygon id="Path-726-Copy-96" fill="#4A90E2" fill-rule="nonzero" points="518.608226 453 410.154122 656.953415 420.700017 663 529.154122 459.046585"></polygon>
            <polygon id="Path-726-Copy-97" fill="#4A90E2" fill-rule="nonzero" points="241.633134 704 417.154122 666.132551 414.67511 654 239.154122 691.867449"></polygon>
            <polygon id="Path-726-Copy-98" fill="#4A90E2" fill-rule="nonzero" points="372.977633 871 422.154122 660.909208 410.33061 658 361.154122 868.090792"></polygon>
            <polygon id="Path-726-Copy-99" fill="#4A90E2" fill-rule="nonzero" points="579.154122 789.318173 420.774932 655 413.154122 664.681827 571.533311 799"></polygon>
            <polygon id="Path-726-Copy-100" fill="#4A90E2" fill-rule="nonzero" points="522.886818 450 291.154122 495.700423 293.421426 508 525.154122 462.299577"></polygon>
            <polygon id="Path-726-Copy-101" fill="#4A90E2" fill-rule="nonzero" points="522.886818 450 291.154122 495.700423 293.421426 508 525.154122 462.299577"></polygon>
            <polygon id="Path-726-Copy-102" fill="#4A90E2" fill-rule="nonzero" points="240.863549 706 300.154122 503.60607 288.444695 500 229.154122 702.39393"></polygon>
            <polygon id="Path-726-Copy-103" fill="#4A90E2" fill-rule="nonzero" points="102.154122 492.102683 293.164776 508 294.154122 495.897317 103.143468 480"></polygon>
            <polygon id="Path-726-Copy-104" fill="#4A90E2" fill-rule="nonzero" points="526.154122 450.962252 247.16413 377 244.154122 389.037748 523.144114 463"></polygon>
            <polygon id="Path-726-Copy-105" fill="#4A90E2" fill-rule="nonzero" points="528.154122 452.83806 301.386952 237 293.154122 246.16194 519.921291 462"></polygon>
            <polygon id="Path-726-Copy-106" fill="#4A90E2" fill-rule="nonzero" points="528.154122 452.83806 301.386952 237 293.154122 246.16194 519.921291 462"></polygon>
            <ellipse id="Oval-1-Copy-50" stroke="#4A90E2" stroke-width="10" fill="#CFE0F5" cx="191.654122" cy="119" rx="32.5" ry="33"></ellipse>
            <ellipse id="Oval-1-Copy-51" stroke="#4A90E2" stroke-width="10" fill="#CFE0F5" cx="500.154122" cy="32.5" rx="27" ry="27.5"></ellipse>
            <ellipse id="Oval-1-Copy-52" stroke="#4A90E2" stroke-width="10" fill="#CFE0F5" cx="292.154122" cy="238.5" rx="27" ry="27.5"></ellipse>
            <ellipse id="Oval-1-Copy-53" stroke="#FA781A" stroke-width="10" fill="#CFE0F5" cx="516.654122" cy="451.5" rx="95.5" ry="98.5"></ellipse>
            <ellipse id="Oval-1-Copy-54" stroke="#4A90E2" stroke-width="10" fill="#CFE0F5" cx="410.154122" cy="653" rx="48" ry="49"></ellipse>
            <ellipse id="Oval-1-Copy-55" stroke="#FA781A" stroke-width="10" fill="#FCC7A1" cx="702.654122" cy="342" rx="42.5" ry="44"></ellipse>
            <ellipse id="Oval-1-Copy-56" stroke="#4A90E2" stroke-width="10" fill="#CFE0F5" cx="293.654122" cy="501" rx="42.5" ry="44"></ellipse>
            <ellipse id="Oval-1-Copy-57" stroke="#FA781A" stroke-width="10" fill="#CFE0F5" cx="511.654122" cy="228.5" rx="59.5" ry="60.5"></ellipse>
            <ellipse id="Oval-1-Copy-58" stroke="#4A90E2" stroke-width="10" fill="#CFE0F5" cx="942.654122" cy="565" rx="42.5" ry="44"></ellipse>
            <ellipse id="Oval-1-Copy-59" stroke="#FA781A" stroke-width="10" fill="#CFE0F5" cx="847.654122" cy="375" rx="42.5" ry="44"></ellipse>
            <ellipse id="Oval-1-Copy-60" stroke="#4A90E2" stroke-width="10" fill="#CFE0F5" cx="96.1541219" cy="483.5" rx="27" ry="27.5"></ellipse>
            <ellipse id="Oval-1-Copy-61" stroke="#4A90E2" stroke-width="10" fill="#CFE0F5" cx="652.154122" cy="127.5" rx="19" ry="19.5"></ellipse>
            <ellipse id="Oval-1-Copy-62" stroke="#4A90E2" stroke-width="10" fill="#CFE0F5" cx="152.154122" cy="268.5" rx="19" ry="19.5"></ellipse>
            <ellipse id="Oval-1-Copy-63" stroke="#4A90E2" stroke-width="10" fill="#CFE0F5" cx="817.154122" cy="818.5" rx="19" ry="19.5"></ellipse>
            <ellipse id="Oval-1-Copy-64" stroke="#4A90E2" stroke-width="10" fill="#CFE0F5" cx="24.1541219" cy="355.5" rx="19" ry="19.5"></ellipse>
            <ellipse id="Oval-1-Copy-65" stroke="#4A90E2" stroke-width="10" fill="#CFE0F5" cx="780.154122" cy="503.5" rx="19" ry="19.5"></ellipse>
            <ellipse id="Oval-1-Copy-66" stroke="#4A90E2" stroke-width="10" fill="#CFE0F5" cx="365.154122" cy="872.5" rx="19" ry="19.5"></ellipse>
            <ellipse id="Oval-1-Copy-67" stroke="#4A90E2" stroke-width="10" fill="#CFE0F5" cx="349.154122" cy="90.5" rx="19" ry="19.5"></ellipse>
            <ellipse id="Oval-1-Copy-68" stroke="#FA781A" stroke-width="10" fill="#CFE0F5" cx="785.154122" cy="208.5" rx="19" ry="19.5"></ellipse>
            <ellipse id="Oval-1-Copy-69" stroke="#4A90E2" stroke-width="10" fill="#CFE0F5" cx="586.654122" cy="804" rx="32.5" ry="33"></ellipse>
            <ellipse id="Oval-1-Copy-70" stroke="#4A90E2" stroke-width="10" fill="#CFE0F5" cx="767.654122" cy="675" rx="32.5" ry="33"></ellipse>
            <ellipse id="Oval-1-Copy-71" stroke="#4A90E2" stroke-width="10" fill="#CFE0F5" cx="238.654122" cy="375" rx="32.5" ry="33"></ellipse>
            <ellipse id="Oval-1-Copy-72" stroke="#4A90E2" stroke-width="10" fill="#CFE0F5" cx="228.654122" cy="696" rx="32.5" ry="33"></ellipse>
            <ellipse id="Oval-1-Copy-73" stroke="#4A90E2" stroke-width="10" fill="#CFE0F5" cx="644.654122" cy="620" rx="32.5" ry="33"></ellipse>
            <ellipse id="Oval-1-Copy-74" stroke="#4A90E2" stroke-width="10" fill="#CFE0F5" cx="809.654122" cy="76" rx="32.5" ry="33"></ellipse>
        </g>
    </g>
</svg>